<svg xmlns="http://www.w3.org/2000/svg" viewBox="0 0 32 32" fill="none">
  <!-- Ocean gradient background -->
  <defs>
    <linearGradient id="oceanGradient" x1="0%" y1="0%" x2="0%" y2="100%">
      <stop offset="0%" style="stop-color:#1e40af;stop-opacity:1" />
      <stop offset="100%" style="stop-color:#0f172a;stop-opacity:1" />
    </linearGradient>
    <linearGradient id="waveGradient" x1="0%" y1="0%" x2="0%" y2="100%">
      <stop offset="0%" style="stop-color:#3b82f6;stop-opacity:1" />
      <stop offset="100%" style="stop-color:#1d4ed8;stop-opacity:1" />
    </linearGradient>
  </defs>
  
  <!-- Main circular background -->
  <circle cx="16" cy="16" r="15" fill="url(#oceanGradient)" stroke="#60a5fa" stroke-width="0.5"/>
  
  <!-- Wave patterns -->
  <path d="M4 18 Q8 15 12 18 T20 18 T28 18" stroke="url(#waveGradient)" stroke-width="1.5" fill="none" opacity="0.8"/>
  <path d="M4 22 Q8 19 12 22 T20 22 T28 22" stroke="url(#waveGradient)" stroke-width="1.2" fill="none" opacity="0.6"/>
  <path d="M4 25 Q8 23 12 25 T20 25 T28 25" stroke="url(#waveGradient)" stroke-width="1" fill="none" opacity="0.4"/>
  
  <!-- Data visualization elements (stylized chart bars) -->
  <rect x="8" y="12" width="1.5" height="3" fill="#60a5fa" rx="0.5"/>
  <rect x="10.5" y="10" width="1.5" height="5" fill="#3b82f6" rx="0.5"/>
  <rect x="13" y="8" width="1.5" height="7" fill="#2563eb" rx="0.5"/>
  <rect x="15.5" y="9" width="1.5" height="6" fill="#1d4ed8" rx="0.5"/>
  <rect x="18" y="11" width="1.5" height="4" fill="#1e40af" rx="0.5"/>
  <rect x="20.5" y="13" width="1.5" height="2" fill="#1e3a8a" rx="0.5"/>
  
  <!-- Small dots representing GPS coordinates -->
  <circle cx="9" cy="8" r="0.8" fill="#60a5fa" opacity="0.8"/>
  <circle cx="14" cy="6" r="0.8" fill="#3b82f6" opacity="0.8"/>
  <circle cx="19" cy="7" r="0.8" fill="#2563eb" opacity="0.8"/>
  <circle cx="23" cy="9" r="0.8" fill="#1d4ed8" opacity="0.8"/>
</svg> 